<?xml version="1.0" encoding="utf-8"?>
<!-- Generator: Adobe Illustrator 16.0.0, SVG Export Plug-In . SVG Version: 6.00 Build 0)  -->
<!DOCTYPE svg PUBLIC "-//W3C//DTD SVG 1.1//EN" "http://www.w3.org/Graphics/SVG/1.1/DTD/svg11.dtd">
<svg version="1.1" xmlns="http://www.w3.org/2000/svg" xmlns:xlink="http://www.w3.org/1999/xlink" x="0px" y="0px"
	 width="243.084px" height="64.667px" viewBox="-17.208 24.958 243.084 64.667"
	 enable-background="new -17.208 24.958 243.084 64.667" xml:space="preserve">
<g id="Layer_1">
	<path fill="#666666" stroke="#333333" stroke-width="0.2" stroke-miterlimit="10" d="M5.305,88.532V74.967
		c0-1.998-0.536-3.461-1.615-4.38c-1.079-0.922-2.839-1.384-5.282-1.384c-1.129,0-2.338,0.227-3.618,0.68
		c-1.282,0.45-2.286,1.017-3.005,1.688v16.961h-7.7v-23.47h5.544l1.417,2.19c2.092-1.753,5.186-2.628,9.272-2.628
		c3.921,0,7.017,0.836,9.284,2.507c2.266,1.675,3.403,4.009,3.403,7.001v14.399H5.305z"/>
	<path fill="#666666" stroke="#333333" stroke-width="0.2" stroke-miterlimit="10" d="M50.768,78.475H27.205
		c0.145,1.868,1.047,3.321,2.708,4.357c1.665,1.041,3.902,1.557,6.715,1.557c3.511,0,6.182-0.647,8.011-1.948l2.987,4.185
		c-2.709,1.566-6.757,2.346-12.137,2.346c-5.028,0-9.008-1.047-11.934-3.145c-2.926-2.095-4.39-5.021-4.39-8.774
		c0-3.696,1.605-6.69,4.821-8.985c3.212-2.295,7.071-3.441,11.564-3.441c4.784,0,8.625,1.014,11.521,3.044
		c2.895,2.031,4.342,4.617,4.342,7.757C51.414,76.102,51.198,77.112,50.768,78.475z M27.48,74.354h16.2
		c-0.534-3.431-3.201-5.15-8.006-5.15C31.282,69.203,28.55,70.923,27.48,74.354z"/>
	<path fill="#666666" stroke="#333333" stroke-width="0.2" stroke-miterlimit="10" d="M55.541,87.019l2.739-4.359
		c2.299,1.3,4.897,1.95,7.792,1.95c3.001,0,4.495-0.759,4.495-2.28c0-0.89-0.451-1.62-1.355-2.19
		c-0.901-0.57-2.654-1.241-5.268-2.018c-5.685-1.679-8.53-4.029-8.53-7.053c0-2.033,1.09-3.613,3.265-4.748
		c2.176-1.131,4.962-1.696,8.35-1.696c3.428,0,6.647,0.545,9.669,1.642l-2.219,4.253c-1.683-1.024-4.022-1.535-7.025-1.535
		c-2.689,0-4.03,0.761-4.03,2.278c0,0.601,0.439,1.141,1.321,1.622c0.884,0.484,2.772,1.132,5.667,1.94
		c2.898,0.812,4.982,1.795,6.252,2.947c1.275,1.154,1.91,2.55,1.91,4.185c0,2.179-1.135,3.891-3.402,5.14
		c-2.268,1.249-5.352,1.873-9.256,1.873c-2.199,0-3.957-0.128-5.284-0.383C59.311,88.33,57.614,87.81,55.541,87.019z"/>
	<path fill="#666666" stroke="#333333" stroke-width="0.2" stroke-miterlimit="10" d="M110.608,66.926l-3.296,4.096
		c-1.804-1.209-4.227-1.818-7.267-1.818c-2.917,0-5.222,0.69-6.914,2.073c-1.693,1.381-2.544,3.289-2.544,5.728
		c0,4.926,3.299,7.385,9.889,7.385c2.854,0,5.37-0.668,7.545-2.014l2.836,4.316c-2.237,0.994-4.195,1.621-5.872,1.883
		c-1.676,0.266-3.647,0.395-5.927,0.395c-5.096,0-9.111-1.055-12.058-3.166c-2.946-2.107-4.42-5.042-4.42-8.799
		c0-3.695,1.613-6.681,4.835-8.961c3.226-2.277,7.617-3.418,13.181-3.418C104.437,64.625,107.778,65.392,110.608,66.926z"/>
	<path fill="#666666" stroke="#333333" stroke-width="0.2" stroke-miterlimit="10" d="M119.08,88.532V69.555h-4.22v-4.492h12.012
		v23.47H119.08z M123.049,55.967c1.233,0,2.286,0.313,3.164,0.934c0.869,0.62,1.307,1.368,1.307,2.246
		c0,0.877-0.438,1.624-1.307,2.246c-0.878,0.621-1.931,0.931-3.164,0.931c-1.228,0-2.283-0.31-3.153-0.931
		c-0.877-0.622-1.312-1.369-1.312-2.246c0-0.878,0.435-1.626,1.312-2.246C120.766,56.28,121.822,55.967,123.049,55.967z"/>
	<path fill="#663434" stroke="#330000" stroke-width="0.2" stroke-miterlimit="10" d="M133.676,76.743
		c0-3.581,1.457-6.494,4.361-8.744c2.904-2.247,6.741-3.374,11.502-3.374c5.013,0,8.902,1.08,11.679,3.241
		c2.767,2.164,4.158,5.123,4.158,8.877c0,3.74-1.415,6.712-4.236,8.917c-2.83,2.207-6.69,3.309-11.598,3.309
		c-5.013,0-8.906-1.113-11.689-3.341C135.073,83.399,133.676,80.438,133.676,76.743z M141.685,76.743
		c0,5.171,2.618,7.754,7.854,7.754c2.403,0,4.309-0.669,5.716-2.014c1.406-1.343,2.109-3.259,2.109-5.74
		c0-5.099-2.61-7.646-7.822-7.646c-2.402,0-4.313,0.669-5.732,2.014C142.396,72.453,141.685,74.33,141.685,76.743z"/>
	<path fill="#663434" stroke="#330000" stroke-width="0.2" stroke-miterlimit="10" d="M192.751,88.532V74.967
		c0-1.998-0.54-3.461-1.617-4.38c-1.079-0.922-2.836-1.384-5.278-1.384c-1.134,0-2.34,0.227-3.619,0.68
		c-1.284,0.45-2.285,1.017-3.002,1.688v16.961h-7.697v-23.47h5.536l1.418,2.19c2.096-1.753,5.187-2.628,9.272-2.628
		c3.919,0,7.017,0.836,9.286,2.507c2.267,1.675,3.405,4.009,3.405,7.001v14.399H192.751z"/>
</g>
<g id="Layer_3">
	<path fill="#336667" d="M224.554,67.677c-0.067-0.236-0.147-0.466-0.222-0.699c-0.196-0.575-0.447-1.14-0.753-1.699
		c0.306,0.556,0.555,1.123,0.753,1.697c-12.19-39.287-37.544-41.497-37.622-41.503c-0.001,0-0.004-0.002-0.004-0.002
		s-36.629,8.585-36.96,38.93c0.137-7.256,7.923-14.354,20.505-16.443c0.793-0.131,1.639-0.229,2.518-0.292
		c9.379-0.688,23.201,2.015,34.176,6.478c2.917,8.689,4.898,20.615,4.78,33.543C220.394,84.159,226.509,74.898,224.554,67.677z"/>
</g>
<g id="Layer_2">
	<g>
		<g>
			<defs>
				<rect id="SVGID_1_" x="121.182" y="-2.247" width="130.359" height="120.029"/>
			</defs>
			<defs>
				<rect id="SVGID_2_" x="121.182" y="-2.247" width="130.359" height="120.029"/>
			</defs>
			<defs>
				<rect id="SVGID_3_" x="121.182" y="-2.247" width="130.359" height="120.029"/>
			</defs>
			<defs>
				<rect id="SVGID_4_" x="121.182" y="-2.247" width="130.359" height="120.029"/>
			</defs>
			<defs>
				<rect id="SVGID_5_" x="121.182" y="-2.247" width="130.359" height="120.029"/>
			</defs>
			<defs>
				<rect id="SVGID_6_" x="121.182" y="-2.247" width="130.359" height="120.029"/>
			</defs>
			<defs>
				<rect id="SVGID_7_" x="121.182" y="-2.247" width="130.359" height="120.029"/>
			</defs>
			<defs>
				<rect id="SVGID_8_" x="121.182" y="-2.247" width="130.359" height="120.029"/>
			</defs>
			<clipPath id="SVGID_9_">
				<use xlink:href="#SVGID_1_"  overflow="visible"/>
			</clipPath>
			<clipPath id="SVGID_10_" clip-path="url(#SVGID_9_)">
				<use xlink:href="#SVGID_2_"  overflow="visible"/>
			</clipPath>
			<clipPath id="SVGID_11_" clip-path="url(#SVGID_10_)">
				<use xlink:href="#SVGID_3_"  overflow="visible"/>
			</clipPath>
			<clipPath id="SVGID_12_" clip-path="url(#SVGID_11_)">
				<use xlink:href="#SVGID_4_"  overflow="visible"/>
			</clipPath>
			<clipPath id="SVGID_13_" clip-path="url(#SVGID_12_)">
				<use xlink:href="#SVGID_5_"  overflow="visible"/>
			</clipPath>
			<clipPath id="SVGID_14_" clip-path="url(#SVGID_13_)">
				<use xlink:href="#SVGID_6_"  overflow="visible"/>
			</clipPath>
			<clipPath id="SVGID_15_" clip-path="url(#SVGID_14_)">
				<use xlink:href="#SVGID_7_"  overflow="visible"/>
			</clipPath>
			<clipPath id="SVGID_16_" clip-path="url(#SVGID_15_)">
				<use xlink:href="#SVGID_8_"  overflow="visible"/>
			</clipPath>
			<path clip-path="url(#SVGID_16_)" fill="#343417" d="M172.769,47.665c9.379-0.688,23.201,2.015,34.176,6.478
				c-7.52-22.414-20.238-28.672-20.238-28.672S172.034,35.304,172.769,47.665"/>
			<path clip-path="url(#SVGID_16_)" fill="none" d="M172.769,47.665c9.379-0.688,23.201,2.015,34.176,6.478
				c-7.52-22.414-20.238-28.672-20.238-28.672S172.034,35.304,172.769,47.665z"/>
			<path clip-path="url(#SVGID_16_)" fill="#003333" d="M206.945,54.143c8.012,3.258,14.507,7.273,16.635,11.136
				c0.306,0.556,0.555,1.123,0.753,1.697c-12.209-39.348-37.626-41.504-37.626-41.504S199.425,31.729,206.945,54.143"/>
			<path clip-path="url(#SVGID_16_)" fill="none" d="M206.945,54.143c8.012,3.258,14.507,7.273,16.635,11.136
				c0.306,0.556,0.555,1.123,0.753,1.697c-12.209-39.348-37.626-41.504-37.626-41.504S199.425,31.729,206.945,54.143z"/>
			<path clip-path="url(#SVGID_16_)" fill="#663333" d="M170.251,47.957c0.793-0.131,1.639-0.229,2.518-0.292
				c-0.735-12.361,13.938-22.195,13.938-22.195s-36.629,8.585-36.96,38.93C149.883,57.145,157.669,50.047,170.251,47.957"/>
			<path clip-path="url(#SVGID_16_)" fill="none" d="M170.251,47.957c0.793-0.131,1.639-0.229,2.518-0.292
				c-0.735-12.361,13.938-22.195,13.938-22.195s-36.629,8.585-36.96,38.93C149.883,57.145,157.669,50.047,170.251,47.957z"/>
			<path clip-path="url(#SVGID_16_)" fill="#336667" d="M224.554,67.677c-0.067-0.236-0.147-0.466-0.222-0.699
				c-0.196-0.575-0.447-1.14-0.753-1.699c-2.128-3.862-8.623-7.878-16.635-11.136c2.917,8.689,4.898,20.615,4.78,33.543
				C220.394,84.159,226.509,74.898,224.554,67.677"/>
			<path clip-path="url(#SVGID_16_)" fill="none" d="M224.554,67.677c-0.067-0.236-0.147-0.466-0.222-0.699
				c-0.196-0.575-0.447-1.14-0.753-1.699c-2.128-3.862-8.623-7.878-16.635-11.136c2.917,8.689,4.898,20.615,4.78,33.543
				C220.394,84.159,226.509,74.898,224.554,67.677z"/>
		</g>
	</g>
</g>
</svg>
