<svg xmlns="http://www.w3.org/2000/svg" xmlns:xlink="http://www.w3.org/1999/xlink" width="243.084" height="64.667" viewBox="-17.208 24.958 243.084 64.667" enable-background="new -17.208 24.958 243.084 64.667"><g stroke-width=".2" stroke-miterlimit="10"><path fill="#666" stroke="#333" d="M5.305 88.532v-13.565c0-1.998-.536-3.461-1.615-4.38-1.079-.922-2.839-1.384-5.282-1.384-1.129 0-2.338.227-3.618.68-1.282.45-2.286 1.017-3.005 1.688v16.961h-7.7v-23.47h5.544l1.417 2.19c2.092-1.753 5.186-2.628 9.272-2.628 3.921 0 7.017.836 9.284 2.507 2.266 1.675 3.403 4.009 3.403 7.001v14.399h-7.7z"/><path fill="#666" stroke="#333" d="M50.768 78.475h-23.563c.145 1.868 1.047 3.321 2.708 4.357 1.665 1.041 3.902 1.557 6.715 1.557 3.511 0 6.182-.647 8.011-1.948l2.987 4.185c-2.709 1.566-6.757 2.346-12.137 2.346-5.028 0-9.008-1.047-11.934-3.145-2.926-2.095-4.39-5.021-4.39-8.774 0-3.696 1.605-6.69 4.821-8.985 3.212-2.295 7.071-3.441 11.564-3.441 4.784 0 8.625 1.014 11.521 3.044 2.895 2.031 4.342 4.617 4.342 7.757.001.674-.215 1.684-.645 3.047zm-23.288-4.121h16.2c-.534-3.431-3.201-5.15-8.006-5.15-4.392-.001-7.124 1.719-8.194 5.15z"/><path fill="#666" stroke="#333" d="M55.541 87.019l2.739-4.359c2.299 1.3 4.897 1.95 7.792 1.95 3.001 0 4.495-.759 4.495-2.28 0-.89-.451-1.62-1.355-2.19-.901-.57-2.654-1.241-5.268-2.018-5.685-1.679-8.53-4.029-8.53-7.053 0-2.033 1.09-3.613 3.265-4.748 2.176-1.131 4.962-1.696 8.35-1.696 3.428 0 6.647.545 9.669 1.642l-2.219 4.253c-1.683-1.024-4.022-1.535-7.025-1.535-2.689 0-4.03.761-4.03 2.278 0 .601.439 1.141 1.321 1.622.884.484 2.772 1.132 5.667 1.94 2.898.812 4.982 1.795 6.252 2.947 1.275 1.154 1.91 2.55 1.91 4.185 0 2.179-1.135 3.891-3.402 5.14-2.268 1.249-5.352 1.873-9.256 1.873-2.199 0-3.957-.128-5.284-.383-1.321-.257-3.018-.777-5.091-1.568z"/><path fill="#666" stroke="#333" d="M110.608 66.926l-3.296 4.096c-1.804-1.209-4.227-1.818-7.267-1.818-2.917 0-5.222.69-6.914 2.073-1.693 1.381-2.544 3.289-2.544 5.728 0 4.926 3.299 7.385 9.889 7.385 2.854 0 5.37-.668 7.545-2.014l2.836 4.316c-2.237.994-4.195 1.621-5.872 1.883-1.676.266-3.647.395-5.927.395-5.096 0-9.111-1.055-12.058-3.166-2.946-2.107-4.42-5.042-4.42-8.799 0-3.695 1.613-6.681 4.835-8.961 3.226-2.277 7.617-3.418 13.181-3.418 3.841-.001 7.182.766 10.012 2.3z"/><path fill="#666" stroke="#333" d="M119.08 88.532v-18.977h-4.22v-4.492h12.012v23.47h-7.792zm3.969-32.565c1.233 0 2.286.313 3.164.934.869.62 1.307 1.368 1.307 2.246 0 .877-.438 1.624-1.307 2.246-.878.621-1.931.931-3.164.931-1.228 0-2.283-.31-3.153-.931-.877-.622-1.312-1.369-1.312-2.246 0-.878.435-1.626 1.312-2.246.87-.621 1.926-.934 3.153-.934z"/><path fill="#663434" stroke="#300" d="M133.676 76.743c0-3.581 1.457-6.494 4.361-8.744 2.904-2.247 6.741-3.374 11.502-3.374 5.013 0 8.902 1.08 11.679 3.241 2.767 2.164 4.158 5.123 4.158 8.877 0 3.74-1.415 6.712-4.236 8.917-2.83 2.207-6.69 3.309-11.598 3.309-5.013 0-8.906-1.113-11.689-3.341-2.78-2.229-4.177-5.19-4.177-8.885zm8.009 0c0 5.171 2.618 7.754 7.854 7.754 2.403 0 4.309-.669 5.716-2.014 1.406-1.343 2.109-3.259 2.109-5.74 0-5.099-2.61-7.646-7.822-7.646-2.402 0-4.313.669-5.732 2.014-1.414 1.342-2.125 3.219-2.125 5.632z"/><path fill="#663434" stroke="#300" d="M192.751 88.532v-13.565c0-1.998-.54-3.461-1.617-4.38-1.079-.922-2.836-1.384-5.278-1.384-1.134 0-2.34.227-3.619.68-1.284.45-2.285 1.017-3.002 1.688v16.961h-7.697v-23.47h5.536l1.418 2.19c2.096-1.753 5.187-2.628 9.272-2.628 3.919 0 7.017.836 9.286 2.507 2.267 1.675 3.405 4.009 3.405 7.001v14.399h-7.704z"/></g><path fill="#336667" d="M224.554 67.677l-.222-.699c-.196-.575-.447-1.14-.753-1.699.306.556.555 1.123.753 1.697-12.19-39.287-37.544-41.497-37.622-41.503l-.004-.002s-36.629 8.585-36.96 38.93c.137-7.256 7.923-14.354 20.505-16.443.793-.131 1.639-.229 2.518-.292 9.379-.688 23.201 2.015 34.176 6.478 2.917 8.689 4.898 20.615 4.78 33.543 8.669-3.528 14.784-12.789 12.829-20.01z"/><g><defs><rect id="a" x="121.182" y="-2.247" width="130.359" height="120.029"/></defs><defs><rect id="c" x="121.182" y="-2.247" width="130.359" height="120.029"/></defs><defs><rect id="e" x="121.182" y="-2.247" width="130.359" height="120.029"/></defs><defs><rect id="g" x="121.182" y="-2.247" width="130.359" height="120.029"/></defs><defs><rect id="i" x="121.182" y="-2.247" width="130.359" height="120.029"/></defs><defs><rect id="k" x="121.182" y="-2.247" width="130.359" height="120.029"/></defs><defs><rect id="m" x="121.182" y="-2.247" width="130.359" height="120.029"/></defs><defs><rect id="o" x="121.182" y="-2.247" width="130.359" height="120.029"/></defs><clipPath id="b"><use xlink:href="#a" overflow="visible"/></clipPath><clipPath id="d" clip-path="url(#b)"><use xlink:href="#c" overflow="visible"/></clipPath><clipPath id="f" clip-path="url(#d)"><use xlink:href="#e" overflow="visible"/></clipPath><clipPath id="h" clip-path="url(#f)"><use xlink:href="#g" overflow="visible"/></clipPath><clipPath id="j" clip-path="url(#h)"><use xlink:href="#i" overflow="visible"/></clipPath><clipPath id="l" clip-path="url(#j)"><use xlink:href="#k" overflow="visible"/></clipPath><clipPath id="n" clip-path="url(#l)"><use xlink:href="#m" overflow="visible"/></clipPath><clipPath id="p" clip-path="url(#n)"><use xlink:href="#o" overflow="visible"/></clipPath><path clip-path="url(#p)" fill="#343417" d="M172.769 47.665c9.379-.688 23.201 2.015 34.176 6.478-7.52-22.414-20.238-28.672-20.238-28.672s-14.673 9.833-13.938 22.194"/><path clip-path="url(#p)" d="M172.769 47.665c9.379-.688 23.201 2.015 34.176 6.478-7.52-22.414-20.238-28.672-20.238-28.672s-14.673 9.833-13.938 22.194z" fill="none"/><path clip-path="url(#p)" fill="#033" d="M206.945 54.143c8.012 3.258 14.507 7.273 16.635 11.136.306.556.555 1.123.753 1.697-12.209-39.348-37.626-41.504-37.626-41.504s12.718 6.257 20.238 28.671"/><path clip-path="url(#p)" d="M206.945 54.143c8.012 3.258 14.507 7.273 16.635 11.136.306.556.555 1.123.753 1.697-12.209-39.348-37.626-41.504-37.626-41.504s12.718 6.257 20.238 28.671z" fill="none"/><path clip-path="url(#p)" fill="#633" d="M170.251 47.957c.793-.131 1.639-.229 2.518-.292-.735-12.361 13.938-22.195 13.938-22.195s-36.629 8.585-36.96 38.93c.136-7.255 7.922-14.353 20.504-16.443"/><path clip-path="url(#p)" d="M170.251 47.957c.793-.131 1.639-.229 2.518-.292-.735-12.361 13.938-22.195 13.938-22.195s-36.629 8.585-36.96 38.93c.136-7.255 7.922-14.353 20.504-16.443z" fill="none"/><path clip-path="url(#p)" fill="#336667" d="M224.554 67.677l-.222-.699c-.196-.575-.447-1.14-.753-1.699-2.128-3.862-8.623-7.878-16.635-11.136 2.917 8.689 4.898 20.615 4.78 33.543 8.67-3.527 14.785-12.788 12.83-20.009"/><path clip-path="url(#p)" d="M224.554 67.677l-.222-.699c-.196-.575-.447-1.14-.753-1.699-2.128-3.862-8.623-7.878-16.635-11.136 2.917 8.689 4.898 20.615 4.78 33.543 8.67-3.527 14.785-12.788 12.83-20.009z" fill="none"/></g></svg>