<svg xmlns="http://www.w3.org/2000/svg" xmlns:xlink="http://www.w3.org/1999/xlink" width="167" height="43.922" viewBox="58.875 51.626 167 43.922" enable-background="new 58.875 51.626 167 43.922"><defs><rect id="a" x="154.225" y="32.753" width="89.741" height="82.629"/></defs><clipPath id="b"><use xlink:href="#a" overflow="visible"/></clipPath><g clip-path="url(#b)"><defs><rect id="c" x="154.225" y="32.753" width="89.741" height="82.629"/></defs><defs><rect id="e" x="154.225" y="32.753" width="89.741" height="82.629"/></defs><defs><rect id="g" x="154.225" y="32.753" width="89.741" height="82.629"/></defs><defs><rect id="i" x="154.225" y="32.753" width="89.741" height="82.629"/></defs><defs><rect id="k" x="154.225" y="32.753" width="89.741" height="82.629"/></defs><defs><rect id="m" x="154.225" y="32.753" width="89.741" height="82.629"/></defs><defs><rect id="o" x="154.225" y="32.753" width="89.741" height="82.629"/></defs><defs><rect id="q" x="154.225" y="32.753" width="89.741" height="82.629"/></defs><clipPath id="d"><use xlink:href="#c" overflow="visible"/></clipPath><clipPath id="f" clip-path="url(#d)"><use xlink:href="#e" overflow="visible"/></clipPath><clipPath id="h" clip-path="url(#f)"><use xlink:href="#g" overflow="visible"/></clipPath><clipPath id="j" clip-path="url(#h)"><use xlink:href="#i" overflow="visible"/></clipPath><clipPath id="l" clip-path="url(#j)"><use xlink:href="#k" overflow="visible"/></clipPath><clipPath id="n" clip-path="url(#l)"><use xlink:href="#m" overflow="visible"/></clipPath><clipPath id="p" clip-path="url(#n)"><use xlink:href="#o" overflow="visible"/></clipPath><clipPath id="r" clip-path="url(#p)"><use xlink:href="#q" overflow="visible"/></clipPath><path clip-path="url(#r)" fill="#343417" d="M189.739 67.113c6.456-.473 15.972 1.387 23.526 4.459-5.176-15.43-13.932-19.738-13.932-19.738s-10.101 6.77-9.594 15.279"/><path clip-path="url(#r)" d="M189.739 67.113c6.456-.473 15.972 1.387 23.526 4.459-5.176-15.43-13.932-19.738-13.932-19.738s-10.101 6.77-9.594 15.279z" fill="none"/><path clip-path="url(#r)" fill="#033" d="M213.265 71.572c5.516 2.243 9.987 5.007 11.452 7.666.21.383.382.772.518 1.168-8.404-27.087-25.901-28.571-25.901-28.571s8.755 4.308 13.931 19.737"/><path clip-path="url(#r)" d="M213.265 71.572c5.516 2.243 9.987 5.007 11.452 7.666.21.383.382.772.518 1.168-8.404-27.087-25.901-28.571-25.901-28.571s8.755 4.308 13.931 19.737z" fill="none"/><path clip-path="url(#r)" fill="#633" d="M188.005 67.314c.546-.09 1.128-.158 1.733-.201-.507-8.51 9.595-15.279 9.595-15.279s-25.216 5.91-25.444 26.8c.095-4.995 5.455-9.881 14.116-11.32"/><path clip-path="url(#r)" d="M188.005 67.314c.546-.09 1.128-.158 1.733-.201-.507-8.51 9.595-15.279 9.595-15.279s-25.216 5.91-25.444 26.8c.095-4.995 5.455-9.881 14.116-11.32z" fill="none"/><path clip-path="url(#r)" fill="#336667" d="M225.388 80.889l-.153-.48c-.135-.396-.308-.785-.518-1.17-1.465-2.659-5.937-5.423-11.452-7.666 2.008 5.981 3.372 14.191 3.291 23.092 5.968-2.429 10.178-8.805 8.832-13.776"/><path clip-path="url(#r)" d="M225.388 80.889l-.153-.48c-.135-.396-.308-.785-.518-1.17-1.465-2.659-5.937-5.423-11.452-7.666 2.008 5.981 3.372 14.191 3.291 23.092 5.968-2.429 10.178-8.805 8.832-13.776z" fill="none"/></g><path fill="#333" stroke="#000" stroke-width=".5" stroke-miterlimit="10" d="M74.455 95.247v-9.339c0-1.376-.369-2.383-1.112-3.016-.743-.635-1.955-.952-3.636-.952-.778 0-1.61.156-2.491.468-.883.311-1.573.7-2.068 1.162v11.677h-5.301v-16.157h3.816l.975 1.508c1.441-1.207 3.57-1.809 6.383-1.809 2.7 0 4.83.575 6.391 1.726 1.56 1.152 2.342 2.76 2.342 4.819v9.913h-5.299z"/><path fill="#333" stroke="#000" stroke-width=".5" stroke-miterlimit="10" d="M105.751 88.322h-16.221c.099 1.287.721 2.287 1.864 3 1.146.717 2.687 1.072 4.623 1.072 2.417 0 4.255-.446 5.515-1.342l2.056 2.881c-1.865 1.078-4.651 1.614-8.355 1.614-3.461 0-6.201-.72-8.215-2.164-2.015-1.442-3.022-3.457-3.022-6.041 0-2.544 1.105-4.605 3.318-6.186 2.211-1.579 4.868-2.368 7.961-2.368 3.294 0 5.938.698 7.931 2.095 1.993 1.399 2.989 3.179 2.989 5.341.001.464-.148 1.162-.444 2.098zm-16.031-2.837h11.152c-.368-2.361-2.204-3.545-5.512-3.545-3.023 0-4.904 1.184-5.64 3.545z"/><path fill="#333" stroke="#000" stroke-width=".5" stroke-miterlimit="10" d="M109.037 94.204l1.886-3.001c1.583.896 3.372 1.343 5.364 1.343 2.066 0 3.095-.522 3.095-1.569 0-.613-.311-1.115-.933-1.508-.621-.393-1.827-.855-3.626-1.389-3.914-1.156-5.872-2.774-5.872-4.856 0-1.398.75-2.487 2.248-3.268 1.498-.778 3.416-1.168 5.748-1.168 2.36 0 4.576.375 6.656 1.13l-1.527 2.928c-1.158-.705-2.769-1.057-4.836-1.057-1.851 0-2.774.524-2.774 1.568 0 .413.302.785.91 1.117.608.333 1.908.778 3.901 1.335 1.995.56 3.43 1.235 4.304 2.029.878.795 1.314 1.755 1.314 2.881 0 1.499-.781 2.678-2.342 3.538-1.562.86-3.685 1.289-6.372 1.289-1.514 0-2.724-.088-3.637-.264-.912-.175-2.08-.533-3.507-1.078z"/><path fill="#333" stroke="#000" stroke-width=".5" stroke-miterlimit="10" d="M146.946 80.372l-2.269 2.82c-1.242-.833-2.91-1.252-5.003-1.252-2.008 0-3.595.476-4.76 1.427-1.165.95-1.751 2.265-1.751 3.943 0 3.391 2.271 5.084 6.808 5.084 1.965 0 3.696-.461 5.194-1.387l1.952 2.972c-1.54.684-2.888 1.116-4.042 1.296-1.153.183-2.511.271-4.08.271-3.508 0-6.272-.726-8.301-2.179-2.028-1.451-3.043-3.472-3.043-6.058 0-2.544 1.11-4.6 3.329-6.169 2.221-1.568 5.243-2.353 9.073-2.353 2.645.002 4.945.529 6.893 1.585z"/><path fill="#333" stroke="#000" stroke-width=".5" stroke-miterlimit="10" d="M152.778 95.247v-13.064h-2.905v-3.093h8.27v16.157h-5.365zm2.733-22.418c.849 0 1.573.215 2.177.642.599.428.9.942.9 1.546 0 .604-.302 1.118-.9 1.547-.604.428-1.328.641-2.177.641-.846 0-1.572-.213-2.171-.641-.604-.429-.903-.942-.903-1.547 0-.604.299-1.118.903-1.546.599-.427 1.326-.642 2.171-.642z"/><path fill="#663434" stroke="#300" stroke-width=".5" stroke-miterlimit="10" d="M162.827 87.131c0-2.465 1.003-4.471 3.002-6.02 2-1.547 4.641-2.322 7.918-2.322 3.451 0 6.129.743 8.04 2.231 1.905 1.489 2.862 3.526 2.862 6.11 0 2.574-.974 4.62-2.916 6.139-1.947 1.52-4.605 2.277-7.984 2.277-3.45 0-6.131-.767-8.046-2.3-1.915-1.533-2.876-3.572-2.876-6.115zm5.513 0c0 3.56 1.802 5.338 5.406 5.338 1.655 0 2.967-.46 3.935-1.386.969-.925 1.452-2.244 1.452-3.952 0-3.511-1.796-5.265-5.385-5.265-1.653 0-2.969.462-3.945 1.387-.973.925-1.463 2.217-1.463 3.878z"/><path fill="#663434" stroke="#300" stroke-width=".5" stroke-miterlimit="10" d="M203.495 95.247v-9.339c0-1.376-.372-2.383-1.113-3.016-.743-.635-1.952-.952-3.634-.952-.78 0-1.611.156-2.492.468-.884.311-1.572.7-2.065 1.162v11.677h-5.3v-16.157h3.812l.977 1.508c1.442-1.207 3.57-1.809 6.384-1.809 2.697 0 4.829.575 6.392 1.726 1.561 1.152 2.344 2.76 2.344 4.819v9.913h-5.305z"/></svg>